<svg width="496" height="144" viewBox="0 0 496 144" fill="none" xmlns="http://www.w3.org/2000/svg">
<path d="M200.329 105.513C194.429 105.513 189.011 104.119 184.074 101.331C179.137 98.5423 175.224 94.693 172.335 89.7829C169.445 84.8122 168 79.205 168 72.9612C168 66.7781 169.445 61.2315 172.335 56.3214C175.224 51.3507 179.137 47.4711 184.074 44.6827C189.011 41.8942 194.429 40.5 200.329 40.5C206.289 40.5 211.707 41.8942 216.584 44.6827C221.52 47.4711 225.403 51.3507 228.233 56.3214C231.122 61.2315 232.567 66.7781 232.567 72.9612C232.567 79.205 231.122 84.8122 228.233 89.7829C225.403 94.693 221.52 98.5423 216.584 101.331C211.647 104.119 206.229 105.513 200.329 105.513ZM200.329 94.1474C204.122 94.1474 207.463 93.2988 210.353 91.6014C213.242 89.8435 215.5 87.3581 217.125 84.1454C218.751 80.9326 219.564 77.2045 219.564 72.9612C219.564 68.7179 218.751 65.0202 217.125 61.868C215.5 58.6553 213.242 56.2002 210.353 54.5029C207.463 52.8056 204.122 51.9569 200.329 51.9569C196.536 51.9569 193.165 52.8056 190.215 54.5029C187.325 56.2002 185.067 58.6553 183.442 61.868C181.816 65.0202 181.004 68.7179 181.004 72.9612C181.004 77.2045 181.816 80.9326 183.442 84.1454C185.067 87.3581 187.325 89.8435 190.215 91.6014C193.165 93.2988 196.536 94.1474 200.329 94.1474Z" fill="black" style="fill:black;fill-opacity:1;"/>
<path d="M265.181 53.7755C271.141 53.7755 275.957 55.6849 279.63 59.5039C283.302 63.2623 285.138 68.5361 285.138 75.3254V104.877H272.496V77.053C272.496 73.0522 271.502 69.9909 269.516 67.8693C267.529 65.687 264.82 64.5959 261.388 64.5959C257.897 64.5959 255.127 65.687 253.08 67.8693C251.094 69.9909 250.1 73.0522 250.1 77.053V104.877H237.458V54.5029H250.1V60.7769C251.786 58.5946 253.923 56.8973 256.512 55.6849C259.161 54.412 262.051 53.7755 265.181 53.7755Z" fill="black" style="fill:black;fill-opacity:1;"/>
<path d="M340.055 78.5988C340.055 80.4173 339.935 82.054 339.694 83.5089H303.121C303.422 87.146 304.686 89.9951 306.914 92.0561C309.141 94.1171 311.88 95.1476 315.131 95.1476C319.827 95.1476 323.168 93.1169 325.155 89.0555H338.791C337.346 93.905 334.577 97.9058 330.483 101.058C326.389 104.149 321.362 105.695 315.402 105.695C310.586 105.695 306.251 104.634 302.398 102.513C298.606 100.331 295.626 97.2693 293.458 93.3291C291.351 89.3889 290.298 84.8425 290.298 79.6899C290.298 74.4767 291.351 69.9 293.458 65.9598C295.565 62.0196 298.515 58.9887 302.308 56.867C306.101 54.7454 310.465 53.6845 315.402 53.6845C320.158 53.6845 324.402 54.715 328.135 56.7761C331.928 58.8371 334.848 61.7771 336.894 65.5961C339.002 69.3544 340.055 73.6887 340.055 78.5988ZM326.961 74.9616C326.901 71.6882 325.727 69.0816 323.439 67.1419C321.151 65.1414 318.352 64.1412 315.041 64.1412C311.91 64.1412 309.261 65.1111 307.094 67.0509C304.987 68.9301 303.693 71.567 303.211 74.9616H326.961Z" fill="black" style="fill:black;fill-opacity:1;"/>
<path d="M382.154 104.877L359.216 76.5984V104.877H346.574V41.4093H359.216V69.8697L382.154 41.4093H397.415L371.407 72.8703L398.137 104.877H382.154Z" fill="black" style="fill:black;fill-opacity:1;"/>
<path d="M443.026 78.5988C443.026 80.4173 442.906 82.054 442.665 83.5089H406.092C406.393 87.146 407.657 89.9951 409.885 92.0561C412.112 94.1171 414.851 95.1476 418.102 95.1476C422.798 95.1476 426.139 93.1169 428.126 89.0555H441.762C440.317 93.905 437.548 97.9058 433.454 101.058C429.36 104.149 424.333 105.695 418.373 105.695C413.557 105.695 409.222 104.634 405.369 102.513C401.577 100.331 398.597 97.2693 396.429 93.3291C394.322 89.3889 393.269 84.8425 393.269 79.6899C393.269 74.4767 394.322 69.9 396.429 65.9598C398.536 62.0196 401.486 58.9887 405.279 56.867C409.072 54.7454 413.437 53.6845 418.373 53.6845C423.129 53.6845 427.374 54.715 431.106 56.7761C434.899 58.8371 437.819 61.7771 439.866 65.5961C441.973 69.3544 443.026 73.6887 443.026 78.5988ZM429.932 74.9616C429.872 71.6882 428.698 69.0816 426.41 67.1419C424.123 65.1414 421.323 64.1412 418.012 64.1412C414.881 64.1412 412.233 65.1111 410.065 67.0509C407.958 68.9301 406.664 71.567 406.182 74.9616H429.932Z" fill="black" style="fill:black;fill-opacity:1;"/>
<path d="M495.6 54.5029L464.626 128.7H451.171L462.007 103.604L441.96 54.5029H456.137L469.051 89.692L482.145 54.5029H495.6Z" fill="black" style="fill:black;fill-opacity:1;"/>
<path fill-rule="evenodd" clip-rule="evenodd" d="M72 144C121.706 144 144 121.706 144 72C144 22.2944 121.706 0 72 0C22.2944 0 0 22.2944 0 72C0 121.706 22.2944 144 72 144ZM58.4753 30.5305H78.5053V63.5381H66.0865V41.1562H54.9613L58.4753 30.5305ZM72.0004 113.469C84.6164 113.469 94.8437 103.242 94.8437 90.6261C94.8437 78.0101 84.6164 67.7828 72.0004 67.7828C59.3844 67.7828 49.1571 78.0101 49.1571 90.6261C49.1571 103.242 59.3844 113.469 72.0004 113.469ZM72.0004 103.099C78.8889 103.099 84.4731 97.5145 84.4731 90.626C84.4731 83.7375 78.8889 78.1533 72.0004 78.1533C65.1119 78.1533 59.5276 83.7375 59.5276 90.626C59.5276 97.5145 65.1119 103.099 72.0004 103.099Z" fill="black" style="fill:black;fill-opacity:1;"/>
</svg>
