<svg width="256" height="256" viewBox="0 0 256 256" fill="none" xmlns="http://www.w3.org/2000/svg">
<g clipPath="url(#clip0_33_23)">
<path d="M257 0H1V256H257V0Z" fill="#ACF601"/>
<path d="M112.049 130.155L83.6564 144.724C83.1388 144.989 82.9188 145.613 83.1555 146.145C83.3921 146.677 84.0029 146.93 84.5467 146.724L120.945 132.87L112.449 173.279C112.344 173.776 112.646 174.267 113.136 174.398C113.626 174.53 114.133 174.255 114.291 173.773L128.008 131.868L167.039 146.724C167.583 146.93 168.193 146.677 168.43 146.145C168.667 145.613 168.447 144.989 167.93 144.724L139.642 130.21L169.301 129.113C181.531 133.762 187.842 146.199 183.926 160.813C178.947 179.397 159.312 194.465 140.072 194.465H50.9453L68.6221 128.493L112.049 130.155Z" fill="#1A1A1A"/>
<path d="M186.779 125.745L139.701 124.005L167.994 109.418C168.445 109.186 168.636 108.641 168.43 108.178C168.224 107.714 167.691 107.492 167.218 107.672L130.686 121.495L139.236 81.2086C139.357 80.6398 139.012 80.0759 138.45 79.9255C137.888 79.775 137.306 80.0905 137.127 80.6433L123.517 122.486L84.3685 107.672C83.8938 107.492 83.3617 107.714 83.1553 108.178C82.9488 108.641 83.14 109.186 83.591 109.418L111.99 124.059L85.7001 125.065C73.718 120.306 67.5768 107.974 71.4521 93.5119C76.4319 74.9268 96.0666 59.8606 115.307 59.8606H204.433L186.779 125.745Z" fill="#1A1A1A"/>
</g>
<defs>
<clipPath id="clip0_33_23">
<rect width="256" height="256" fill="white"/>
</clipPath>
</defs>
</svg>
