<svg width="72" height="72" viewBox="0 0 72 72" fill="none" xmlns="http://www.w3.org/2000/svg">
<rect width="72" height="72" rx="20" fill="#EBFF42"/>
<path d="M58.1423 15.8303C53.8756 11.0034 48.1007 7.5815 41.5689 6.32602C40.7461 6.16802 39.9612 6.74736 39.8588 7.59146L37.2377 29.1095C37.1466 29.854 36.5803 30.2326 36.0042 30.2469C35.4282 30.2312 34.8619 29.8526 34.7708 29.1095L32.1496 7.59146C32.0473 6.74736 31.2624 6.16802 30.4396 6.32602C23.9092 7.58007 18.1343 11.0034 13.8662 15.8303C13.3013 16.4694 13.3966 17.4644 14.0708 17.984L34.0699 33.3898C34.6404 33.8297 35.3216 34.046 36.0014 34.0417C36.0014 34.0417 36.0028 34.0417 36.0042 34.0417C36.0042 34.0417 36.0056 34.0417 36.007 34.0417C36.6869 34.0474 37.3681 33.8297 37.9386 33.3898L57.9376 17.984C58.6119 17.4644 58.7072 16.4694 58.1423 15.8303Z" fill="black"/>
<path d="M7.8688 26.0714C7.13432 28.4528 6.43068 31.8605 6.30173 34.4554C6.25968 35.3052 6.91146 35.9999 7.74966 35.9999H30.475C31.2151 35.9999 31.4211 34.9679 30.7399 34.6761L9.81853 25.1561C9.03079 24.8174 8.12671 25.243 7.8702 26.0714H7.8688Z" fill="black"/>
<path d="M64.1318 26.0714C64.8663 28.4528 65.5699 31.8605 65.6989 34.4554C65.7409 35.3052 65.0891 35.9999 64.2509 35.9999H41.5256C40.7855 35.9999 40.5795 34.9679 41.2607 34.6761L62.1821 25.1561C62.9698 24.8174 63.8739 25.243 64.1304 26.0714H64.1318Z" fill="black"/>
</svg>
