<svg width="113" height="32" viewBox="0 0 113 32" fill="none" xmlns="http://www.w3.org/2000/svg">
<rect width="32" height="32" rx="8.47682" fill="#0096F7" style="fill:#0096F7;fill:color(display-p3 0.0000 0.5882 0.9686);fill-opacity:1;"/>
<path d="M21.4745 16H10.5959C7.84544 16 5.61577 18.2297 5.61577 20.9801C5.61577 23.7306 7.84545 25.9603 10.5959 25.9603H21.4745V16Z" fill="black" style="fill:black;fill-opacity:1;"/>
<path d="M10.49 6.03992H21.3686C24.119 6.03992 26.3487 8.2696 26.3487 11.02C26.3487 13.7705 24.119 16.0002 21.3686 16.0002H10.49V6.03992Z" fill="black" style="fill:black;fill-opacity:1;"/>
<ellipse cx="10.5785" cy="11.02" rx="4.82119" ry="4.98013" fill="white" style="fill:white;fill-opacity:1;"/>
<ellipse cx="4.82119" cy="4.98013" rx="4.82119" ry="4.98013" transform="matrix(-1 0 0 1 26.2075 16)" fill="white" style="fill:white;fill-opacity:1;"/>
<path d="M105.571 20.7868V10.2188H107.571V13.9135C108.055 13.0638 108.819 12.6389 109.862 12.6389C110.701 12.6389 111.384 12.9347 111.911 13.5263C112.438 14.1072 112.702 14.8601 112.702 15.7851V20.7868H110.669V15.9949C110.669 15.726 110.637 15.5055 110.572 15.3334C110.389 14.7418 109.959 14.446 109.281 14.446C108.679 14.446 108.222 14.6826 107.91 15.1559C107.706 15.5001 107.603 16.0003 107.603 16.6564V20.7868H105.571Z" fill="#080808" style="fill:#080808;fill:color(display-p3 0.0325 0.0325 0.0325);fill-opacity:1;"/>
<path d="M101.501 20.9643C100.103 20.9643 99.0378 20.4319 98.3064 19.367L99.4358 18.044C99.9736 18.9367 100.667 19.3831 101.517 19.3831C101.829 19.3831 102.087 19.3078 102.292 19.1572C102.496 19.0066 102.598 18.813 102.598 18.5764C102.598 18.4043 102.528 18.2645 102.388 18.1569C102.259 18.0386 102.028 17.9149 101.695 17.7858L100.549 17.3502C99.2798 16.8554 98.6452 16.0917 98.6452 15.0591C98.6452 14.3384 98.9088 13.7576 99.4358 13.3166C99.9629 12.8648 100.651 12.6389 101.501 12.6389C102.76 12.6389 103.728 13.1122 104.405 14.0587L103.308 15.414C102.803 14.6181 102.189 14.2201 101.469 14.2201C101.2 14.2201 100.979 14.2846 100.807 14.4137C100.635 14.5428 100.549 14.7149 100.549 14.93C100.549 15.2419 100.834 15.5055 101.404 15.7206L102.582 16.1724C103.249 16.4305 103.733 16.7371 104.034 17.092C104.346 17.4362 104.502 17.8665 104.502 18.3828C104.502 19.1465 104.222 19.7703 103.663 20.2544C103.104 20.7277 102.383 20.9643 101.501 20.9643Z" fill="#080808" style="fill:#080808;fill:color(display-p3 0.0325 0.0325 0.0325);fill-opacity:1;"/>
<path d="M93.0341 20.9642C92.0123 20.9642 91.1625 20.5769 90.4849 19.8025C89.8072 19.0173 89.4684 18.0223 89.4684 16.8176C89.4684 15.6129 89.8072 14.6179 90.4849 13.8327C91.1625 13.0475 92.0123 12.6549 93.0341 12.6549C94.1312 12.6549 94.9218 13.0744 95.4059 13.9134V12.8163H97.4065V20.7867H95.4059V19.6895C94.9003 20.5393 94.1097 20.9642 93.0341 20.9642ZM92.066 18.5601C92.4317 19.0011 92.9104 19.2216 93.502 19.2216C94.0936 19.2216 94.5669 19.0011 94.9218 18.5601C95.2875 18.1084 95.4704 17.5275 95.4704 16.8176C95.4704 16.0969 95.2875 15.5161 94.9218 15.0751C94.5669 14.6233 94.0936 14.3974 93.502 14.3974C92.9104 14.3974 92.4317 14.6233 92.066 15.0751C91.7003 15.5268 91.5175 16.1077 91.5175 16.8176C91.5175 17.5275 91.7003 18.1084 92.066 18.5601Z" fill="#080808" style="fill:#080808;fill:color(display-p3 0.0325 0.0325 0.0325);fill-opacity:1;"/>
<path d="M85.8122 20.9643C84.629 20.9643 83.6448 20.5717 82.8596 19.7865C82.0851 19.0013 81.6979 18.0063 81.6979 16.8016C81.6979 15.5861 82.0851 14.5912 82.8596 13.8167C83.634 13.0315 84.6236 12.6389 85.8283 12.6389C87.2159 12.6389 88.2969 13.166 89.0713 14.2201L87.9742 15.7367C87.4471 14.844 86.7533 14.3976 85.8928 14.3976C85.2475 14.3976 84.7204 14.6235 84.3117 15.0752C83.9029 15.527 83.6985 16.1078 83.6985 16.8177C83.6985 17.5169 83.8975 18.087 84.2955 18.528C84.7043 18.969 85.2259 19.1895 85.8606 19.1895C86.3016 19.1895 86.7211 19.0658 87.1191 18.8184C87.517 18.5603 87.8505 18.2053 88.1194 17.7535L89.2165 19.1895C88.3883 20.3727 87.2535 20.9643 85.8122 20.9643Z" fill="#080808" style="fill:#080808;fill:color(display-p3 0.0325 0.0325 0.0325);fill-opacity:1;"/>
<path d="M68.9602 20.7868V12.8164H70.9286V13.8167C71.4126 13.0315 72.1387 12.6389 73.1068 12.6389C74.1501 12.6389 74.9246 13.0961 75.4301 14.0103C76.0217 13.0961 76.8553 12.6389 77.931 12.6389C78.7484 12.6389 79.4207 12.9347 79.9478 13.5263C80.4748 14.1179 80.7384 14.8816 80.7384 15.8174V20.7868H78.7054V15.9626C78.7054 15.6614 78.6624 15.4302 78.5763 15.2688C78.4042 14.7203 78.017 14.446 77.4147 14.446C76.8768 14.446 76.4681 14.6719 76.1884 15.1236C75.9733 15.4786 75.8657 15.8766 75.8657 16.3176V20.7868H73.8328V15.9626C73.8328 15.6614 73.7952 15.4302 73.7199 15.2688C73.5263 14.7203 73.1336 14.446 72.5421 14.446C72.015 14.446 71.6009 14.6772 71.2997 15.1398C71.0953 15.4624 70.9931 15.9626 70.9931 16.6403V20.7868H68.9602Z" fill="#080808" style="fill:#080808;fill:color(display-p3 0.0325 0.0325 0.0325);fill-opacity:1;"/>
<path d="M63.0751 20.9642C62.0533 20.9642 61.2035 20.5769 60.5259 19.8025C59.8482 19.0173 59.5094 18.0223 59.5094 16.8176C59.5094 15.6129 59.8482 14.6179 60.5259 13.8327C61.2035 13.0475 62.0533 12.6549 63.0751 12.6549C64.1723 12.6549 64.9628 13.0744 65.4469 13.9134V12.8163H67.4475V20.7867H65.4469V19.6895C64.9413 20.5393 64.1507 20.9642 63.0751 20.9642ZM62.107 18.5601C62.4728 19.0011 62.9514 19.2216 63.543 19.2216C64.1346 19.2216 64.6079 19.0011 64.9628 18.5601C65.3286 18.1084 65.5114 17.5275 65.5114 16.8176C65.5114 16.0969 65.3286 15.5161 64.9628 15.0751C64.6079 14.6233 64.1346 14.3974 63.543 14.3974C62.9514 14.3974 62.4728 14.6233 62.107 15.0751C61.7413 15.5268 61.5585 16.1077 61.5585 16.8176C61.5585 17.5275 61.7413 18.1084 62.107 18.5601Z" fill="#080808" style="fill:#080808;fill:color(display-p3 0.0325 0.0325 0.0325);fill-opacity:1;"/>
<path d="M55.3654 20.9643C54.15 20.9643 53.155 20.5771 52.3806 19.8026C51.6061 19.0282 51.2189 18.0278 51.2189 16.8016C51.2189 15.5861 51.5846 14.5912 52.316 13.8167C53.0582 13.0315 54.0048 12.6389 55.1557 12.6389C56.2636 12.6389 57.1671 13.01 57.8663 13.7522C58.5654 14.4836 58.915 15.4356 58.915 16.608C58.915 16.8016 58.9042 16.9576 58.8827 17.0759H53.155C53.198 17.7213 53.4293 18.2483 53.8488 18.6571C54.2683 19.0658 54.7953 19.2702 55.43 19.2702C55.9032 19.2702 56.3496 19.1411 56.7691 18.8829C57.1886 18.614 57.5328 18.2537 57.8017 17.8019L58.8182 19.2056C58.033 20.3781 56.8821 20.9643 55.3654 20.9643ZM53.2357 15.6561H56.9305C56.8444 15.2258 56.6347 14.8816 56.3012 14.6235C55.9678 14.3545 55.5698 14.2201 55.1073 14.2201C54.6448 14.2201 54.2414 14.3545 53.8972 14.6235C53.5637 14.8816 53.3432 15.2258 53.2357 15.6561Z" fill="#080808" style="fill:#080808;fill:color(display-p3 0.0325 0.0325 0.0325);fill-opacity:1;"/>
<path d="M46.2177 20.7868V12.8164H48.2022V14.0103C48.4066 13.5908 48.7185 13.2574 49.138 13.01C49.5682 12.7626 50.0523 12.6389 50.5901 12.6389C50.8805 12.6389 51.214 12.6873 51.5904 12.7841L50.7837 14.7203C50.5148 14.6019 50.2351 14.5428 49.9447 14.5428C49.3531 14.5428 48.9067 14.7687 48.6055 15.2204C48.3689 15.5646 48.2506 16.1347 48.2506 16.9307V20.7868H46.2177Z" fill="#080808" style="fill:#080808;fill:color(display-p3 0.0325 0.0325 0.0325);fill-opacity:1;"/>
<path d="M40.3324 20.9643C39.3106 20.9643 38.4608 20.5771 37.7832 19.8026C37.1055 19.0174 36.7667 18.0224 36.7667 16.8177C36.7667 15.613 37.1055 14.6181 37.7832 13.8329C38.4608 13.0477 39.3106 12.6551 40.3324 12.6551C41.4296 12.6551 42.2202 13.0745 42.7042 13.9135V10.2188H44.7049V20.7868H42.7203V19.6897C42.2148 20.5394 41.4188 20.9643 40.3324 20.9643ZM39.3644 18.5603C39.7301 19.0013 40.2087 19.2218 40.8003 19.2218C41.3919 19.2218 41.8652 19.0013 42.2202 18.5603C42.5859 18.1085 42.7687 17.5277 42.7687 16.8177C42.7687 16.0971 42.5859 15.5162 42.2202 15.0752C41.8652 14.6235 41.3919 14.3976 40.8003 14.3976C40.2087 14.3976 39.7301 14.6235 39.3644 15.0752C38.9987 15.527 38.8158 16.1078 38.8158 16.8177C38.8158 17.5277 38.9987 18.1085 39.3644 18.5603Z" fill="#080808" style="fill:#080808;fill:color(display-p3 0.0325 0.0325 0.0325);fill-opacity:1;"/>
</svg>
