<svg width="481" height="408" viewBox="0 0 481 408" fill="none" xmlns="http://www.w3.org/2000/svg">
<path d="M481 65.0605V104.994L384.62 176.696L355.144 271.062L472.475 407.684H376.813C341.357 365.826 294.963 312.633 259.171 271.062L276.216 232.604L140.224 317.774L240.948 331.137L307.355 406.337C218.277 406.407 12.999 406.495 12.6543 406.495L0 390.538L29.7529 244.567L325.431 0L481 65.0605ZM344.058 45.7666C331.767 45.7666 321.804 55.7301 321.804 68.0205C321.804 80.3111 331.767 90.2754 344.058 90.2754C356.348 90.2753 366.312 80.311 366.312 68.0205C366.311 55.7302 356.348 45.7667 344.058 45.7666Z" fill="#00E997"/>
</svg>
