<?xml version="1.0" encoding="utf-8"?>
<svg version="1.1" id="Layer_1" x="0px" y="0px" viewBox="44.775 -370.742 1875.225 1998.795" style="enable-background:new 0 0 1920 1080;" xmlns="http://www.w3.org/2000/svg" xmlns:bx="https://boxy-svg.com">
  <defs>
    <bx:grid x="0" y="0" width="710.739" height="617.606"/>
  </defs>
  <style type="text/css">
	.st0{fill:#FFFFFF;}
	.st1{fill:url(#SVGID_1_);}
	.st2{fill:#0A0A1C;}
</style>
  <g style="" transform="matrix(4.045813, 0, 0, 4.045813, -3292.884277, -1769.84436)">
    <path class="st1" d="M 840.717 674.736 L 840.717 512.336 C 840.717 512.336 839.317 466.336 890.417 438.836 C 941.517 411.336 996.617 378.036 996.617 378.036 L 1016.817 366.836 C 1016.817 366.836 1044.117 347.436 1079.917 359.136 C 1095.517 364.536 1121.817 381.136 1121.817 381.136 L 1236.717 447.736 C 1236.717 447.736 1260.817 460.036 1270.117 492.636 C 1272.717 503.536 1272.717 504.936 1272.717 529.136 C 1272.717 544.736 1272.717 677.036 1272.717 677.036 C 1272.717 677.036 1271.817 712.436 1241.517 735.636 C 1214.617 752.336 1091.417 821.736 1091.417 821.736 C 1091.417 821.736 1060.817 840.636 1022.417 822.236 C 986.917 802.236 872.817 735.936 872.817 735.936 C 872.817 735.936 843.117 718.336 840.717 674.736 Z" style="fill: rgb(255, 255, 255);"/>
    <path class="st2" d="M 912.817 676.036 L 912.817 649.436 L 880.617 649.436 C 877.717 649.436 875.317 647.036 875.317 644.136 L 875.317 615.336 C 875.317 612.436 877.717 610.036 880.617 610.036 L 912.817 610.036 L 912.817 597.436 L 880.617 597.436 C 877.717 597.436 875.317 595.036 875.317 592.136 L 875.317 563.236 C 875.317 560.336 877.717 557.936 880.617 557.936 L 912.817 557.936 C 912.817 557.936 907.417 521.136 935.617 492.936 C 948.917 478.936 993.817 455.136 1039.817 481.736 C 1050.417 488.236 1056.617 495.036 1056.617 495.036 C 1056.617 495.036 1076.217 471.436 1118.817 469.736 C 1143.017 467.736 1187.617 488.236 1196.417 523.636 C 1198.417 530.436 1201.517 545.036 1199.817 558.336 C 1202.917 558.036 1222.617 558.236 1232.217 558.336 C 1235.117 558.336 1237.417 560.736 1237.417 563.636 L 1237.417 591.736 C 1237.417 594.636 1235.017 597.036 1232.117 597.036 L 1199.617 597.036 L 1199.617 610.336 L 1232.117 610.336 C 1235.017 610.336 1237.417 612.736 1237.417 615.636 L 1237.417 643.736 C 1237.417 646.636 1235.017 649.036 1232.117 649.036 L 1199.917 649.036 L 1199.917 675.936 C 1199.917 678.836 1197.517 681.236 1194.617 681.236 L 1162.917 681.236 C 1160.017 681.236 1157.617 678.836 1157.617 675.936 L 1157.617 552.636 C 1157.617 552.636 1157.917 533.436 1123.817 527.636 C 1107.817 525.636 1092.917 531.236 1082.917 540.736 C 1080.517 543.836 1076.617 548.636 1077.417 563.636 L 1077.417 675.836 C 1077.417 678.736 1075.017 681.136 1072.117 681.136 L 1040.617 681.136 C 1037.717 681.136 1035.317 678.736 1035.317 675.836 L 1035.317 553.536 C 1035.317 551.436 1034.917 549.336 1034.117 547.436 C 1031.017 540.236 1020.517 525.636 986.617 527.536 C 982.317 527.536 954.917 533.136 954.917 558.136 L 954.917 675.636 C 954.917 678.536 952.517 680.936 949.617 680.936 L 918.017 680.936 C 915.317 681.136 913.017 678.936 912.817 676.036 Z" style="fill: rgb(9, 7, 58);"/>
  </g>
  <polygon class="st0" points="2128.46 303.9 2128.46 113.6 2213.36 113.6 2260.86 243.1 2308.86 113.6 2393.06 113.6 2393.06 303.9 2331.26 303.9 2330.06 189.2 2282.06 304.3 2239.16 304.3 2191.66 189.4 2190.56 304.3"/>
  <path class="st0" d="M 2535.96 249.8 C 2535.96 249.8 2536.96 236.7 2534.76 217.8 C 2534.66 217.1 2534.56 216.4 2534.46 215.7 C 2521.36 156.8 2485.46 158.5 2457.26 159.5 C 2422.16 163.1 2408.46 176.7 2399.96 188.7 C 2399.46 189.4 2398.96 190.2 2398.56 191 C 2370.06 246.5 2404.76 286.6 2423.66 297.4 C 2465.56 319.2 2526.86 299.4 2526.86 299.4 L 2526.86 262.6 L 2520.26 265.8 C 2520.26 265.8 2511.06 270.1 2491.06 271.2 C 2448.26 274.3 2450.96 249.7 2450.96 249.7 L 2535.96 249.7 L 2535.96 249.8 Z M 2450.66 219.6 C 2450.06 212.6 2451.46 206.6 2452.86 202.7 C 2453.86 199.9 2455.46 197.3 2457.76 195.3 C 2465.56 188.5 2474.06 193.6 2474.06 193.6 C 2483.86 199 2482.46 219.6 2482.46 219.6 L 2450.66 219.6 Z"/>
  <path class="st0" d="M 2637.16 203.2 L 2637.16 162.6 L 2609.56 162.6 L 2609.56 108.8 L 2547.46 129.8 L 2547.46 162.2 L 2525.76 162.2 L 2525.76 203.2 L 2547.36 203.2 L 2547.36 249.3 L 2547.36 257 C 2547.36 257 2546.46 284.2 2564.26 298.9 C 2574.96 305.2 2590.66 314.2 2637.26 300 C 2637.56 299 2637.26 260.2 2637.26 260.2 C 2637.26 260.2 2622.96 264.3 2616.16 259.7 C 2614.36 258.7 2609.46 255.6 2609.56 241.3 C 2609.66 227 2609.56 203.3 2609.56 203.3 L 2637.16 203.2 Z"/>
  <path class="st0" d="M 2714.06 159.7 C 2669.16 155.4 2643.46 167.4 2643.46 167.4 L 2643.46 206.5 C 2673.26 191.6 2693.76 195.1 2699.46 195.8 C 2719.86 198.9 2718.46 213.9 2718.36 215.4 C 2708.06 214.3 2700.96 212.9 2679.86 214.1 C 2636.46 218.7 2630.96 245.1 2629.26 254 C 2623.26 302.6 2658.66 305.8 2671.86 307.4 C 2707.16 309.6 2717.46 283.6 2717.46 283.6 L 2717.46 304 L 2774.96 304 C 2774.96 304 2774.96 243.8 2774.96 223.9 C 2776.86 179.7 2753.66 163.7 2714.06 159.7 Z M 2718.36 243.4 C 2718.66 266.5 2706.26 270.5 2702.66 271.2 C 2687.96 273.2 2685.76 265.3 2685.06 260.4 C 2682.86 242.3 2705.06 242.1 2705.06 242.1 L 2718.36 242.1 C 2718.36 242 2718.36 243.2 2718.36 243.4 Z"/>
  <path class="st0" d="M 3131.76 159.7 C 3086.86 155.4 3061.16 167.4 3061.16 167.4 L 3061.16 206.5 C 3090.96 191.6 3111.46 195.1 3117.16 195.8 C 3137.56 198.9 3136.16 213.9 3136.06 215.4 C 3125.76 214.3 3118.66 212.9 3097.56 214.1 C 3054.16 218.7 3048.66 245.1 3046.96 254 C 3040.96 302.6 3076.36 305.8 3089.56 307.4 C 3124.86 309.6 3135.16 283.6 3135.16 283.6 L 3135.16 304 L 3192.66 304 C 3192.66 304 3192.66 243.8 3192.66 223.9 C 3194.56 179.7 3171.46 163.7 3131.76 159.7 Z M 3136.26 244.2 C 3136.56 267.3 3124.16 271.3 3120.56 272 C 3105.86 274 3103.66 266.1 3102.96 261.2 C 3100.76 243.1 3122.96 242.9 3122.96 242.9 L 3136.26 242.9 C 3136.26 242.8 3136.26 243.9 3136.26 244.2 Z"/>
  <path class="st0" d="M 2771.86 296.4 C 2771.86 296.4 2832.86 320 2889.96 300 C 2897.16 297.5 2903.96 293.8 2909.86 288.8 C 2913.86 285.5 2917.66 281.5 2919.86 277.3 C 2922.36 273.7 2940.36 240.1 2919.86 210.5 C 2909.56 196.7 2895.06 190.2 2867.66 184.1 C 2855.26 181.7 2835.16 178.6 2839.36 165.7 C 2841.06 161 2845.66 157.5 2858.36 156.7 C 2871.06 155.8 2897.06 157.1 2917.86 166 C 2917.56 165.6 2917.86 117.3 2917.86 117.3 C 2917.86 117.3 2882.76 107.6 2837.56 111.9 C 2822.96 112.2 2779.56 122.4 2773.46 160.4 C 2771.96 167.5 2770.86 197.4 2789.56 214.5 C 2797.76 221.6 2814.36 227 2820.46 228.8 C 2826.56 230.6 2834.16 232.4 2839.36 233.6 C 2844.56 234.8 2867.46 238.4 2862.46 252.1 C 2859.46 256.5 2852.76 265.2 2810.86 259.8 C 2797.56 257.8 2777.86 250.5 2771.76 248.5 C 2772.26 252 2771.86 296.4 2771.86 296.4 Z"/>
  <path class="st0" d="M 3049.36 165 L 3049.36 206.7 C 3049.36 206.7 3010.36 187 2994.56 214.2 C 2989.16 224.1 2986.86 259.6 3013.96 265.8 C 3017.86 266.7 3034.86 270.5 3050.26 258 C 3049.36 265 3050.26 300.2 3050.26 300.2 C 3050.26 300.2 3018.76 314.7 2973.46 303.4 C 2959.16 298 2918.36 286 2926.16 214.9 C 2927.56 196.6 2942.06 167.2 2982.46 160.6 C 3006.86 156.8 3042.06 160.8 3049.36 165 Z"/>
  <rect x="3198.46" y="100" class="st0" width="62.1" height="203.9"/>
  <path class="st0" d="M 3410.76 181.6 C 3405.86 173.7 3398.96 167.3 3390.46 163.6 C 3380.46 159.2 3366.76 156.8 3350.76 161.3 C 3343.76 163.3 3332.36 171.9 3326.06 188 C 3325.96 186.4 3326.06 162.2 3326.06 162.2 L 3268.56 162.6 L 3268.56 360.8 L 3329.86 360.8 L 3330.66 286 C 3330.66 286 3341.66 306.8 3367.96 307.7 C 3377.76 307.8 3405.96 307.4 3418.76 269.8 C 3422.86 259.1 3430.06 213 3410.76 181.6 Z M 3358.86 235.7 C 3358.76 252 3359.46 263.3 3345.26 265.2 C 3332.36 266.9 3329.06 253 3328.56 236.7 C 3327.66 207.2 3337.46 204.7 3345.06 204.7 C 3355.46 204.6 3359.06 216.3 3358.86 235.7 Z"/>
</svg>