<svg xmlns="http://www.w3.org/2000/svg" viewBox="0 0 38 28"><path fill="#4fffab" d="M16.723 17.044c1.079 2.428 2.854 5.62 5.554 8.347-1.165.16-2.505.255-4.042.255C4.358 25.646 0 10.003 0 4.307 0 2.74.37.888.37.888c3.875 8.509 8.491 14.154 15.568 16.001q.384.1.785.155M37.4 21.453c0 3.265-3.206 5.808-6.82 5.808-4.874 0-8.56-3.164-12.16-10.324-1.663-3.306-3.211-9.42-3.211-13.215 0-2.505.455-3.722.455-3.722 2.315 5.55 3.416 7.325 7.102 12.241 2.914 3.886 5.888 6.308 9.85 7.879a.7.7 0 0 0 .262.042.834.834 0 0 0 .262-1.628c-1.886-.625-3.624-1.797-5.077-3.043.857-.08 1.821-.127 2.742-.127 3.839 0 6.595 2.554 6.595 6.089"/></svg>