<svg xmlns="http://www.w3.org/2000/svg" width="125" height="32" fill="none"><path fill="#fff" d="M10.837 15.46a.405.405 0 0 1 .207-.562.427.427 0 0 1 .537.195c.43.793.968 1.577 1.614 2.323a.43.43 0 0 1-.017.584.41.41 0 0 1-.6-.017 13.648 13.648 0 0 1-1.741-2.522Zm3.725 3.33a.43.43 0 0 0-.586.015.41.41 0 0 0 .015.6 13.743 13.743 0 0 0 2.402 1.695c.212.117.477.02.57-.205a.427.427 0 0 0-.19-.535c-.756-.424-1.5-.948-2.211-1.57Zm5.963-1.713a.427.427 0 0 0 .539.2.404.404 0 0 0 .21-.557 13.617 13.617 0 0 0-1.87-2.729.41.41 0 0 0-.6-.015.43.43 0 0 0-.014.586 13.011 13.011 0 0 1 1.735 2.515Zm-2.542-4.499a.41.41 0 0 1 .017.6.43.43 0 0 1-.585.017 12.924 12.924 0 0 0-2.628-1.773.426.426 0 0 1-.206-.541.404.404 0 0 1 .55-.213c.98.485 1.945 1.124 2.852 1.91Z"/><path fill="#fff" fill-rule="evenodd" d="M6.711 11.102a5.072 5.072 0 0 0-1.233 2.034c-.076.234.106.464.352.464a.401.401 0 0 0 .378-.285 4.167 4.167 0 0 1 1.015-1.702c.116-.116.3-.002.272.16a7.178 7.178 0 0 0-.094 1.502c-.001.104 0 .21.007.318 0 .004.003.006.006.006.004 0 .006.003.007.006a8.673 8.673 0 0 0 .242 1.468c.494 2 1.664 4.08 3.441 5.858 1.759 1.758 3.813 2.922 5.793 3.425.04.01.114.029.193.047a8.868 8.868 0 0 0 1.704.232 7.09 7.09 0 0 0 1.468-.095c.161-.027.275.156.16.272-.504.502-1.146.866-1.898 1.072a.402.402 0 0 0-.3.382.36.36 0 0 0 .452.358 5.117 5.117 0 0 0 2.257-1.3l2.176-2.178a4.454 4.454 0 0 0 .138-.137l2.076-2.076a4.987 4.987 0 0 0 1.055-1.564c.102-.237-.08-.489-.339-.489a.401.401 0 0 0-.365.25c-.21.495-.501.93-.863 1.292-.08.08-.22 0-.198-.11.088-.45.13-.919.127-1.402l.002-.028v-.001l-.002-.001a8.356 8.356 0 0 0-.092-1.133c-.044-.3-.14-.75-.193-.956-.504-1.978-1.667-4.03-3.424-5.787-1.757-1.757-3.81-2.92-5.788-3.424-.383-.087-.735-.169-1.167-.222a7.444 7.444 0 0 0-2.353.064c-.111.022-.19-.119-.11-.199a4.016 4.016 0 0 1 1.098-.775.402.402 0 0 0 .232-.358c0-.264-.263-.447-.501-.331a4.958 4.958 0 0 0-1.341.953l-4.39 4.39Zm2.018-.288c.05-.115.143-.2.263-.236.29-.088.564.149.574.45.028.837.19 1.714.482 2.598.072.22.318.326.532.237a.422.422 0 0 0 .233-.525 9.384 9.384 0 0 1-.34-1.309l-.011-.065a1.283 1.283 0 0 1 1.501-1.501l.065.011c.324.06.653.138.984.237a.42.42 0 0 0 .51-.237.396.396 0 0 0-.249-.535c-.973-.284-1.933-.41-2.835-.37-.13.014-.331.044-.538.075l-.206.03c-.097.014-.156-.097-.086-.167 1.098-1.098 2.797-1.523 4.779-1.17 1.977.351 4.145 1.472 5.992 3.319 1.847 1.847 2.968 4.014 3.32 5.992.352 1.982-.073 3.681-1.171 4.78-.072.071-.188.009-.173-.092l.11-.74c.043-.962-.104-1.99-.43-3.03a.397.397 0 0 0-.533-.244.421.421 0 0 0-.234.52c.125.392.223.781.292 1.164l.012.065a1.283 1.283 0 0 1-1.501 1.501 9.498 9.498 0 0 1-1.553-.413.422.422 0 0 0-.534.23.398.398 0 0 0 .232.532 9.423 9.423 0 0 0 2.788.547c.303.01.54.286.452.575a.417.417 0 0 1-.237.264c-.972.417-2.16.524-3.47.291-1.978-.352-4.146-1.472-5.993-3.32-1.847-1.846-2.968-4.014-3.32-5.992-.233-1.312-.125-2.5.293-3.472Z" clip-rule="evenodd"/><path fill="#fff" d="M5.172 15.102a.375.375 0 0 1 .38-.368c.223 0 .4.186.403.41.006.406.048.833.129 1.275.075.416.184.84.326 1.268a.42.42 0 0 1-.234.523.397.397 0 0 1-.533-.239c-.318-.98-.478-1.952-.47-2.869Zm9.229-9.89a.367.367 0 0 0-.324.37c0 .234.21.413.444.394a7.313 7.313 0 0 1 1.897.108c.31.057.625.131.942.225a.42.42 0 0 0 .51-.238.396.396 0 0 0-.252-.535c-1.114-.32-2.208-.431-3.217-.324Zm2.307 21.648a.378.378 0 0 0 .381-.382c0-.22-.18-.395-.398-.405a7.924 7.924 0 0 1-1.076-.122 9.604 9.604 0 0 1-1.67-.469.423.423 0 0 0-.54.228.4.4 0 0 0 .224.53c1.048.39 2.092.6 3.079.62Zm9.762-9.114a.37.37 0 0 0 .372-.338c.08-1.08-.085-2.25-.48-3.432a.398.398 0 0 0-.533-.236.422.422 0 0 0-.232.527 9.5 9.5 0 0 1 .353 1.349 7.46 7.46 0 0 1 .121 1.698.407.407 0 0 0 .398.432Zm-14.258 6.906a.428.428 0 0 1 .184.532.406.406 0 0 1-.577.202 13.794 13.794 0 0 1-2.188-1.565.41.41 0 0 1-.016-.6.43.43 0 0 1 .585-.016 13.17 13.17 0 0 0 2.012 1.447ZM23.22 9.616a.41.41 0 0 1 .6.016 13.683 13.683 0 0 1 1.745 2.512.405.405 0 0 1-.207.564.427.427 0 0 1-.536-.194c-.431-.79-.971-1.57-1.618-2.313a.43.43 0 0 1 .016-.585ZM8.214 22.404a.41.41 0 0 0 .6.016.43.43 0 0 0 .016-.586 13.036 13.036 0 0 1-1.66-2.39.427.427 0 0 0-.537-.196.405.405 0 0 0-.208.561 13.65 13.65 0 0 0 1.789 2.595ZM22.42 8.814a.41.41 0 0 0-.017-.6 13.526 13.526 0 0 0-2.924-1.956.403.403 0 0 0-.549.213.426.426 0 0 0 .208.542 12.98 12.98 0 0 1 2.696 1.817.43.43 0 0 0 .585-.016ZM32 12.296V9.795h10.082v2.501h-3.664v11.071h-2.773v-11.07H32Zm18.23 4.751h2.928l4.421 6.32h-3.277l-4.071-6.32Zm-3.082-7.252h2.772v13.572h-2.772V9.795Zm1.687 2.365V9.795h2.87c1.072 0 1.983.18 2.733.543.75.362 1.325.866 1.726 1.512.4.646.6 1.403.6 2.269 0 .853-.2 1.61-.6 2.268-.4.647-.976 1.15-1.726 1.513-.75.362-1.66.543-2.734.543h-2.87v-2.21h2.696c.491 0 .911-.078 1.26-.234.362-.168.64-.4.834-.697.194-.31.29-.68.29-1.106 0-.426-.096-.788-.29-1.085a1.78 1.78 0 0 0-.834-.699c-.349-.168-.769-.252-1.26-.252h-2.695Zm14.641 11.207v-2.346h6.844v2.346h-6.844Zm0-11.226V9.795h6.844v2.346h-6.844Zm0 5.177v-2.307h6.456v2.307h-6.456Zm-1.784-7.523h2.676v13.572h-2.676V9.795Zm15.181 10.49.33-2.192h6.514l.33 2.192h-7.174Zm3.548-6.089-2.036 4.673.058.62-1.784 3.878h-3.121L80.42 9l6.883 14.367h-3.141l-1.745-3.761.039-.698-2.036-4.712Zm10.294-4.401h2.831v13.572h-2.83V9.795Zm4.615 13.572h-2.831v-2.52h2.734c.594 0 1.157-.078 1.687-.233.53-.168.995-.426 1.396-.775.4-.35.71-.789.93-1.319.233-.543.35-1.19.35-1.939 0-.75-.117-1.39-.35-1.92a3.462 3.462 0 0 0-.93-1.337 3.664 3.664 0 0 0-1.396-.756 5.55 5.55 0 0 0-1.687-.252h-2.734V9.795h2.83c1.423 0 2.664.278 3.724.834a6.055 6.055 0 0 1 2.501 2.365c.594 1.008.892 2.204.892 3.587s-.298 2.585-.892 3.607a6.094 6.094 0 0 1-2.501 2.346c-1.06.556-2.301.833-3.723.833Zm15.845-12.335v-.97h5.723v.97h-5.723Zm0 5.5v-.97h5.537v.97h-5.537Zm-.541-6.47h1.026v13.051h-1.026v-13.05Zm10.599.001h1.025v13.05h-1.025v-13.05Z"/></svg>