<svg xmlns="http://www.w3.org/2000/svg" width="54" height="45.886" viewBox="0 0 54 45.886" fill="none"><path d="M45.735.965c-10.61-3.513-21.959 2.793-22.314 15.214-3.824 3.37-6.052 4.979-10.03 7.332-5.316 3.234-6.35 3.872-10.201 7.477-4.987 4.668-3.848 12.475 1.482 14.066h20.613c-.136-.86-.775-1.592-1.702-1.592H5.027C.402 42.052.833 34.843 6.301 30.497v11.556h11.495c-.352-.658-1.152-1.419-2.242-1.419h-2.163c1.975-1.319 2.891-2.161 3.898-3.987.469-.848 1.102-2.821 1.579-4.76l.094 1.373c5.079-.332 7.689-.965 11.867-3.033l-2.373-4.035h1.39l11.725 18.862h7.01c-.077-.5-.606-1.791-2.061-1.791h-2.596c-.97-3.095-1.311-5.068-1.918-8.581l-.002-.005-.094-.538c-1.115-5.987-2.853-8.622-6.785-12.775C21.742 8.709 33.727-1.194 45.735.965" fill="#000"/><path d="M37.564 10.085c-1.975-4.835 1.235-8.972 8.913-8.342-4.864-1.277-10.878.035-13.364 3.725-2.804 4.163-1.972 7.484.256 10.587 1.176 1.641 2.689 3.187 4.033 4.561.956.977 1.826 1.865 2.431 2.641 2.802 3.59 3.318 5.949 3.373 9.6 1.923-2.87 2.761-4.444 3.148-6.13.893-5.002-.598-7.769-4.87-11.623-1.961-1.653-2.877-2.71-3.921-5.018" fill="#000"/><path fill-rule="evenodd" clip-rule="evenodd" d="M52.964 5.49c-1.166-.475-1.71-.768-2.78-1.342-.592-.316-1.347-.722-2.459-1.293-2.063-1.123-4.604.143-5.285.644-1.937-1.568-3.631.472-2.994 1.99-.886 1.206-1.408 4.63 3.602 8.689s5.699 9.125 5.418 11.15c.277-.926.775-3.321.549-5.505-.206-1.998-.992-3.26-1.63-4.283a11 11 0 0 1-.606-1.054c-.475-1.005-.29-1.816-.14-2.097.165-.378.679-1.171 1.427-1.316.748-.147 1.732.11 2.131.26 1.304.416 2.051.063 2.26-.165.202-.156.606-.66.606-1.424 0-.706-.153-.554-.266-.446l-.025.023-.061.061c-.122.123-.348.352-.75.598-.482.296-.964-.054-1.128-.301.076.048.367.095.826-.074.459-.171 1.143-.804 1.402-1.081q.031-.472.061-.783c.052-.603.069-.807-.082-.886-.918-.475-.902-.686-.734-.696 1.63-.171 1.123-.5.658-.671m-4.212-.462c-.304-.36-.965-1.076-1.569-.687-.475.309-1.051.321-1.498.332q-.131 0-.247.006a1.2 1.2 0 0 1 .885.37c.098.098.345.188.86-.103.342-.191 1.148-.062 1.569.081m-3.393-.344.077-.005zm-3.64-.772c-.35.147-1.035.617-1.482 1.056a.77.77 0 0 1 .063-1.051l.115-.112a.875.875 0 0 1 1.304.107" fill="#000"/></svg>