<svg width="28" height="28" viewBox="0 0 28 28" fill="none" xmlns="http://www.w3.org/2000/svg">
<g clip-path="url(#clip0_2435_2964)">
<path d="M0 13.0316C0 6.88845 0 3.81686 1.90843 1.90843C3.81686 0 6.88845 0 13.0316 0H14.9576C21.1007 0 24.1723 0 26.0807 1.90843C27.9891 3.81686 27.9891 6.88845 27.9891 13.0316V14.9576C27.9891 21.1007 27.9891 24.1723 26.0807 26.0807C24.1723 27.9891 21.1007 27.9891 14.9576 27.9891H13.0316C6.88845 27.9891 3.81686 27.9891 1.90843 26.0807C0 24.1723 0 21.1007 0 14.9576V13.0316Z" fill="white"/>
<path d="M14.5312 10.556V14.814L21.528 12.44C22.2153 12.2068 22.6717 11.6049 22.6717 10.9318V8.18074C22.6717 7.99092 22.4851 7.85725 22.3054 7.91823L14.5312 10.556Z" fill="#0E0E0E"/>
<path d="M14.381 6.26359C14.471 6.29408 14.5315 6.37858 14.5315 6.47359V11.6928C14.5315 11.0198 14.0751 10.4179 13.3879 10.1847L7.53473 8.19868C6.84748 7.96551 6.39111 7.36361 6.39111 6.69051V3.86207C6.39111 3.71021 6.54028 3.60327 6.68412 3.65207L14.381 6.26359Z" fill="#0E0E0E"/>
<path d="M14.5315 14.814L14.5315 19.072L7.53473 16.6981C6.84748 16.4649 6.39111 15.863 6.39111 15.1899V12.3615C6.39111 12.2096 6.54033 12.1027 6.68412 12.1515L14.5315 14.814Z" fill="#0E0E0E"/>
<path fill-rule="evenodd" clip-rule="evenodd" d="M11.1802 15.4734V24.1149C11.1802 24.2373 11.2795 24.3366 11.4019 24.3366H14.3121C14.4347 24.3366 14.534 24.2371 14.5338 24.1146L14.5225 15.4734H11.1802Z" fill="#0E0E0E"/>
</g>

</svg>
