<svg xmlns="http://www.w3.org/2000/svg" width="64" height="64" fill="none"><g filter="url(#a)"><path fill="#ACE075" d="M59.701 31.116c-5.47-15.951-35.012-17.11-43.24-17.119-.819 0-1.186.968-.607 1.546l40.974 40.855c.5.498 1.338.289 1.52-.393 1.15-4.3 4.084-16.925 1.353-24.889Z"/></g><g filter="url(#b)"><path fill="#3EB751" d="M41.44 47.731c-4.327 1.274-17.702 4.61-24.731-.433-9.243-6.63-8.406-23.865-11.427-36.165-.246-1.002 1.195-1.865 1.907-1.12l34.627 36.228c.472.494.28 1.298-.376 1.49Z"/></g><defs><filter id="a" width="45.258" height="43.221" x="15.572" y="13.997" color-interpolation-filters="sRGB" filterUnits="userSpaceOnUse"><feFlood flood-opacity="0" result="BackgroundImageFix"/><feColorMatrix in="SourceAlpha" result="hardAlpha" values="0 0 0 0 0 0 0 0 0 0 0 0 0 0 0 0 0 0 127 0"/><feOffset dy=".546"/><feComposite in2="hardAlpha" operator="out"/><feColorMatrix values="0 0 0 0 0.302394 0 0 0 0 0.470833 0 0 0 0 0.16283 0 0 0 1 0"/><feBlend in2="BackgroundImageFix" result="effect1_dropShadow_1014_1424"/><feBlend in="SourceGraphic" in2="effect1_dropShadow_1014_1424" result="shape"/></filter><filter id="b" width="36.824" height="40.81" x="5.254" y="9.732" color-interpolation-filters="sRGB" filterUnits="userSpaceOnUse"><feFlood flood-opacity="0" result="BackgroundImageFix"/><feColorMatrix in="SourceAlpha" result="hardAlpha" values="0 0 0 0 0 0 0 0 0 0 0 0 0 0 0 0 0 0 127 0"/><feOffset dy=".546"/><feComposite in2="hardAlpha" operator="out"/><feColorMatrix values="0 0 0 0 0.053125 0 0 0 0 0.354167 0 0 0 0 0.100076 0 0 0 1 0"/><feBlend in2="BackgroundImageFix" result="effect1_dropShadow_1014_1424"/><feBlend in="SourceGraphic" in2="effect1_dropShadow_1014_1424" result="shape"/></filter></defs></svg>