<svg width="240" height="240" viewBox="0 0 240 240" fill="none" xmlns="http://www.w3.org/2000/svg">
<path d="M81.2742 115.956C80.4304 114.369 81.1713 112.423 82.8312 111.734V111.734C84.3443 111.107 86.0798 111.759 86.8592 113.2C90.0761 119.146 94.117 125.023 98.9607 130.618C100.064 131.893 100.028 133.81 98.8352 135.002V135.002C97.5699 136.267 95.5019 136.227 94.3297 134.875C89.0957 128.838 84.7296 122.453 81.2742 115.956Z" fill="white"/>
<path d="M109.213 140.926C107.94 139.811 106.013 139.842 104.816 141.039V141.039C103.556 142.3 103.59 144.359 104.931 145.534C110.682 150.576 116.756 154.826 122.947 158.248C124.54 159.129 126.522 158.392 127.219 156.712V156.712C127.84 155.215 127.21 153.496 125.797 152.703C120.131 149.521 114.541 145.589 109.213 140.926Z" fill="white"/>
<path d="M153.935 128.079C154.703 129.542 156.452 130.213 157.978 129.58V129.58C159.621 128.898 160.365 126.98 159.551 125.399C155.926 118.363 151.234 111.442 145.53 104.935C144.354 103.594 142.296 103.56 141.035 104.821V104.821C139.838 106.018 139.806 107.944 140.921 109.218C146.208 115.257 150.555 121.635 153.935 128.079Z" fill="white"/>
<path d="M134.871 94.3341C136.223 95.5062 136.263 97.5741 134.998 98.8394V98.8394C133.805 100.032 131.889 100.069 130.614 98.9651C124.301 93.4996 117.629 89.0564 110.903 85.6657C109.412 84.914 108.717 83.1471 109.357 81.6047V81.6047C110.029 79.9834 111.911 79.2348 113.485 80.0127C120.83 83.6448 128.071 88.439 134.871 94.3341Z" fill="white"/>
<path fill-rule="evenodd" clip-rule="evenodd" d="M50.3331 83.2617C46.0381 87.5567 42.9732 92.7393 41.0859 98.5204C40.5129 100.276 41.8798 102.002 43.7262 102.001V102.001C45.0334 102.001 46.1619 101.109 46.5586 99.8638C48.1552 94.8512 50.7291 90.5391 54.1698 87.0984V87.0984C55.0414 86.2268 56.4193 87.0819 56.2094 88.2966C55.5858 91.9052 55.3551 95.68 55.507 99.5639C55.498 100.34 55.5146 101.133 55.5572 101.949C55.5585 101.974 55.5799 101.995 55.6058 101.995V101.995C55.6313 101.995 55.6524 102.014 55.6545 102.04C55.8091 103.98 56.0567 105.943 56.3958 107.924C56.6238 109.255 57.1451 111.738 57.4692 113.05V113.05C61.175 128.044 69.9502 143.647 83.2821 156.979C96.4696 170.167 111.88 178.896 126.724 182.67C127.021 182.745 127.584 182.886 128.177 183.024C131.043 183.692 133.884 184.173 136.68 184.465C137.58 184.559 140.292 184.741 140.948 184.764C144.743 184.896 148.433 184.662 151.963 184.052C153.175 183.843 154.027 185.217 153.158 186.087V186.087C149.388 189.857 144.571 192.587 138.932 194.13C137.626 194.487 136.674 195.644 136.673 196.998V196.998C136.672 198.806 138.33 200.168 140.07 199.677C146.523 197.855 152.291 194.627 156.995 189.923L173.319 173.599C173.494 173.43 173.668 173.26 173.84 173.088C174.013 172.915 174.183 172.742 174.351 172.567L189.919 156.999C193.321 153.597 195.951 149.639 197.835 145.267C198.602 143.49 197.228 141.6 195.293 141.602V141.602C194.089 141.602 193.026 142.364 192.555 143.471C190.973 147.188 188.798 150.447 186.082 153.162V153.162C185.484 153.761 184.432 153.169 184.596 152.338C185.262 148.97 185.577 145.449 185.551 141.824C185.556 141.755 185.562 141.686 185.567 141.617C185.568 141.612 185.563 141.607 185.558 141.607V141.607C185.553 141.607 185.549 141.603 185.549 141.598C185.518 138.82 185.287 135.982 184.861 133.104C184.527 130.852 183.807 127.479 183.412 125.931C179.633 111.099 170.908 95.705 157.732 82.5294C144.554 69.3517 129.157 60.6259 114.323 56.8472C111.451 56.1974 108.808 55.5851 105.571 55.1847C99.4157 54.4233 93.4618 54.5709 87.9217 55.6654C87.0881 55.8301 86.4933 54.7749 87.0942 54.174V54.174C89.4506 51.8176 92.2157 49.8678 95.3347 48.36C96.3724 47.8583 97.0721 46.83 97.0727 45.6774V45.6774C97.0738 43.6938 95.0981 42.3201 93.315 43.1892C89.6036 44.9984 86.2194 47.3753 83.2574 50.3373L50.3331 83.2617ZM65.4649 81.1076C65.8357 80.2453 66.5409 79.6026 67.4393 79.3307V79.3307C69.6087 78.6741 71.671 80.4507 71.7462 82.7159C71.9546 88.9904 73.1737 95.5638 75.3592 102.191C75.9035 103.842 77.7472 104.641 79.353 103.975V103.975C80.8843 103.34 81.6279 101.605 81.1002 100.034C79.9878 96.7214 79.1373 93.4367 78.5522 90.217C78.5224 90.0533 78.4934 89.8898 78.465 89.7267C77.2871 82.9505 82.9463 77.2913 89.7225 78.4692C89.8856 78.4976 90.0491 78.5267 90.2128 78.5564C92.6401 78.9975 95.1044 79.5895 97.5896 80.3308C99.1356 80.7919 100.802 80.0441 101.42 78.5538V78.5538C102.099 76.9162 101.251 75.0401 99.5492 74.5436C92.246 72.4132 85.0487 71.4699 78.2876 71.7739C77.316 71.8733 75.8018 72.0976 74.2469 72.3279C73.7314 72.4043 73.2115 72.4813 72.7053 72.5546C71.9753 72.6604 71.5347 71.8253 72.0564 71.3036V71.3036C80.2939 63.0661 93.0372 59.8785 107.899 62.5222C122.733 65.1608 138.991 73.5647 152.844 87.4175C166.697 101.27 175.101 117.528 177.739 132.362C180.383 147.224 177.195 159.967 168.958 168.205V168.205C168.418 168.745 167.547 168.276 167.659 167.52L168.482 161.969C168.807 154.755 167.711 147.045 165.269 139.24C164.745 137.566 162.887 136.746 161.268 137.417V137.417C159.754 138.045 159.009 139.749 159.507 141.31C160.447 144.255 161.179 147.175 161.7 150.044C161.73 150.207 161.759 150.371 161.787 150.534C162.965 157.31 157.306 162.969 150.53 161.791C150.367 161.763 150.203 161.734 150.039 161.704C146.386 161.04 142.649 160.035 138.882 158.692C137.298 158.128 135.526 158.868 134.882 160.422V160.422C134.224 162.01 134.995 163.836 136.618 164.405C143.732 166.899 150.805 168.286 157.533 168.51C159.802 168.586 161.582 170.651 160.924 172.824V172.824C160.651 173.724 160.007 174.43 159.143 174.801C151.856 177.932 142.949 178.736 133.115 176.986C118.281 174.348 102.023 165.944 88.1702 152.091C74.3174 138.238 65.9135 121.98 63.2749 107.147C61.5247 97.3074 62.3303 88.3969 65.4649 81.1076Z" fill="white"/>
<path d="M38.7914 113.266C38.8037 111.716 40.0924 110.507 41.6425 110.506V110.506C43.3142 110.505 44.6401 111.903 44.6644 113.574C44.7086 116.628 45.025 119.824 45.6278 123.141C46.1947 126.261 47.0109 129.442 48.0729 132.65C48.5922 134.218 47.848 135.944 46.3218 136.577V136.577C44.7121 137.244 42.8642 136.44 42.3257 134.783C39.9355 127.427 38.7371 120.143 38.7914 113.266Z" fill="white"/>
<path d="M108.008 39.0908C106.606 39.2401 105.579 40.4488 105.578 41.8594V41.8594C105.577 43.6217 107.153 44.9624 108.91 44.8195C113.321 44.4606 118.089 44.7148 123.137 45.632C125.463 46.0547 127.822 46.6158 130.202 47.314C131.744 47.7666 133.402 47.0184 134.018 45.5334V45.5334C134.699 43.8917 133.843 42.0113 132.135 41.5213C123.782 39.1257 115.575 38.2855 108.008 39.0908Z" fill="white"/>
<path d="M125.308 201.453C126.9 201.488 128.168 200.176 128.169 198.583V198.583C128.17 196.939 126.823 195.619 125.18 195.549C122.585 195.437 119.892 195.133 117.115 194.629C113.02 193.884 108.82 192.711 104.592 191.116C102.996 190.513 101.187 191.251 100.533 192.827V192.827C99.8816 194.397 100.627 196.205 102.221 196.797C110.077 199.718 117.908 201.295 125.308 201.453Z" fill="white"/>
<path d="M198.518 133.096C199.975 133.096 201.211 132.01 201.317 130.558C201.912 122.459 200.674 113.685 197.71 104.821C197.16 103.177 195.32 102.385 193.719 103.049V103.049C192.182 103.686 191.439 105.429 191.975 107.003C193.137 110.417 194.022 113.803 194.624 117.119C195.439 121.602 195.731 125.864 195.534 129.852C195.449 131.582 196.786 133.097 198.518 133.096V133.096Z" fill="white"/>
<path d="M91.5895 184.893C92.9745 185.7 93.5813 187.4 92.9673 188.881V188.881C92.2614 190.583 90.243 191.314 88.6451 190.396C83.0122 187.161 77.4898 183.239 72.2338 178.657C70.8874 177.484 70.8505 175.42 72.1135 174.157V174.157C73.3081 172.963 75.2295 172.928 76.5038 174.037C81.3633 178.268 86.4389 181.891 91.5895 184.893Z" fill="white"/>
<path d="M174.153 72.1177C175.416 70.8547 177.479 70.8917 178.653 72.2381C183.892 78.2476 188.268 84.6053 191.741 91.0782C192.593 92.6661 191.853 94.6208 190.188 95.3111V95.3111C188.679 95.937 186.947 95.29 186.165 93.8554C182.932 87.9306 178.881 82.0775 174.033 76.5082C172.924 75.2339 172.958 73.3123 174.153 72.1177V72.1177Z" fill="white"/>
<path d="M61.6038 168.028C62.7775 169.374 64.8408 169.411 66.1037 168.148V168.148C67.2984 166.953 67.3328 165.032 66.2233 163.758C61.2175 158.008 57.0616 151.956 53.7787 145.834C53.0027 144.387 51.2632 143.73 49.7464 144.359V144.359C48.0914 145.045 47.3494 146.983 48.1848 148.568C51.7091 155.255 56.1976 161.827 61.6038 168.028Z" fill="white"/>
<path d="M168.144 66.108C169.407 64.845 169.37 62.7819 168.024 61.6082C161.06 55.5373 153.629 50.6235 146.093 46.9329C144.522 46.1633 142.648 46.9128 141.978 48.5291V48.5291C141.336 50.0752 142.037 51.8462 143.534 52.5941C150.435 56.0414 157.286 60.5968 163.754 66.2278C165.028 67.3372 166.949 67.3026 168.144 66.108V66.108Z" fill="white"/>
</svg>
